<svg xmlns="http://www.w3.org/2000/svg" xmlns:xlink="http://www.w3.org/1999/xlink" fill="none" height="48" viewBox="0 0 270 48" width="270"><clipPath id="a"><path d="m.495743.260147h269.009v47.1127h-269.009z"></path></clipPath><g clip-path="url(#a)" fill="#a8afb7"><path d="m50.5986 2.78648c-3.2932 0-6.397-.04442-9.5007.05035-.4531.01481-1.078.59528-1.3001 1.06617-3.3585 7.1255-6.6636 14.2777-9.9805 21.424-2.0939 4.5105-4.1818 9.0269-6.2697 13.5403-.1214.2607-.2251.5302-.388.9122.8115.0563 1.5193.1037 2.2301.151.1066.1185.2103.234.3169.3525-.6367.6752-1.1965 1.8124-1.928 1.9368-1.7858.308-3.7197.3199-4.703-1.7858-1.4808-3.1659-2.9645-6.3318-4.4423-9.5037-4.4868-9.6429-8.9736-19.2857-13.45446-28.93159-.222115-.47978-.393887-.98029-.681159-1.702909h3.947779c3.35546 0 6.71094.065154 10.06344-.032578 1.2735-.0385 1.928.355389 2.4581 1.519287 3.2844 7.21439 6.6428 14.39619 9.9805 21.58989.1214.2576.2665.5034.5508 1.0336 1.0159-2.1442 1.9369-4.0603 2.8343-5.9883 2.6565-5.7159 5.2923-11.44059 7.9873-17.13866.2014-.426464.8056-.932893 1.2261-.938816 4.7859-.062193 9.5689-.032577 14.3548-.020731.1332 0 .2636.082924.5449.177695-1.4156 3.068192-2.8076 6.088992-4.2084 9.106842-4.7918 10.31517-9.6133 20.62147-14.3547 30.96027-.5864 1.2794-1.2202 1.9665-2.7158 1.7799-1.1609-.1451-2.3515-.0296-3.5509-.0296.4057-2.2774.5686-2.4463 2.7009-2.4374.7612.003 1.235-.1362 1.5963-.921 5.3901-11.6686 10.8157-23.3165 16.2324-34.97324.1422-.30504.2399-.63082.4502-1.19351zm-46.31603 0c5.57368 11.99732 11.03483 23.74882 16.64113 35.81432 1.6673-3.5835 3.231-6.8472 4.6822-10.1641.2547-.5805.2665-1.4749.003-2.0465-3.4799-7.6112-7.019-15.1928-10.5906-22.76263-.1777-.37908-.7552-.79962-1.158-.80851-3.1037-.06811-6.20746-.03554-9.58365-.03554z"></path><path d="m144.268 19.472c.083-.8174.163-1.6259.252-2.5085h5.254v22.7834c-1.57 0-3.125.0326-4.671-.0385-.225-.0118-.551-.4975-.616-.8085-.127-.6071-.101-1.2468-.121-1.5844-1.718.924-3.347 2.2152-5.189 2.7246-6.963 1.9221-13.386-2.7128-13.982-9.9064-.296-3.5776.169-6.9538 2.527-9.9065 3.619-4.5312 12.69-5.4523 16.176-.8263.038.0533.172.0356.37.0711zm-13.475 8.7485c-.015 4.1699 2.701 7.0041 6.708 7.0041 3.933 0 6.666-2.8283 6.663-6.8945 0-4.087-2.704-6.9035-6.637-6.9153-4.001-.0119-6.719 2.7335-6.734 6.8057z"></path><path d="m216.415 36.4627c.921-1.3476 1.783-2.6062 2.716-3.9686 2.135 1.7415 4.525 2.8905 7.217 3.0149 1.256.0593 2.624-.3139 3.77-.8588.554-.2636 1.022-1.4009.948-2.0791-.062-.5834-.871-1.4008-1.487-1.5548-1.854-.459-3.793-.5656-5.665-.9595-1.143-.2399-2.301-.616-3.326-1.1669-4.262-2.2893-4.62-7.7712-.749-10.6617 4.075-3.0445 11.994-2.5499 15.832 1.0899-.989 1.1758-1.987 2.3604-3.044 3.6131-2.295-1.848-4.851-2.3811-7.644-1.7769-1.116.2428-2.132.6841-2.174 2.0316-.041 1.3505.936 1.9339 2.05 2.1412 2.028.3791 4.113.4917 6.124.9389 5.518 1.229 7.68 6.8886 4.274 11.0999-1.363 1.6852-3.246 2.5648-5.349 2.8816-4.987.7464-9.634.1689-13.496-3.7848z"></path><path d="m23.2364 47.3493c2.2863-4.931 4.4542-9.6162 6.628-14.2955 4.1106-8.8403 8.2391-17.6747 12.3231-26.5268.385-.83516.8174-1.20832 1.7592-1.15205 1.3712.07996 2.7483.02073 4.1402.02073-.3228 2.23599-.5271 2.45219-2.6565 2.43442-.7848-.00593-1.2498.18361-1.5992.94474-5.473 11.84626-10.9756 23.68076-16.4664 35.52116-.0592.1243-.0681.2724-.1451.5952 3.3081 0 6.5362.0267 9.7673-.0414.3257-.006.7581-.5479.9388-.9329 4.312-9.2372 8.5974-18.4862 12.8888-27.7322 1.2586-2.7128 2.5173-5.4286 3.8322-8.2628-.8588-.04738-1.5341-.08292-2.2123-.11846.2429-2.05237.6072-2.40183 2.47-2.4048h3.619c-1.2883 2.79277-2.4758 5.37526-3.6723 7.95186-5.085 10.943-10.1849 21.8771-15.2373 32.832-.4146.9003-.9033 1.2053-1.8865 1.1935-4.7326-.0533-9.4652-.0237-14.4851-.0237z"></path><path d="m96.974 33.7409c1.5222-4.007 2.9941-7.9163 4.493-11.8107.548-1.4246 1.128-2.8372 1.777-4.2173.171-.3673.633-.8263.983-.8441 1.715-.0859 3.435-.0385 5.417-.0385-.412 1.0692-.729 1.9695-1.099 2.8461-2.683 6.3467-5.393 12.6815-8.044 19.0429-.358.8648-.7876 1.2143-1.7294 1.155-1.3268-.0829-2.6654.0385-3.9922-.0562-.4235-.0296-1.0454-.3613-1.1994-.7167-3.1008-7.1848-6.1482-14.3933-9.2016-21.5988-.0533-.1273-.0415-.2813-.0889-.6604 1.8895 0 3.7346-.0593 5.5707.0562.3317.0208.7197.7286.9033 1.1876 2.0702 5.1591 4.1048 10.333 6.2075 15.652z"></path><path d="m256.617 16.9754v-5.9024c1.91-.2073 3.696-.4028 5.654-.613v6.4769h6.219v4.8392h-6.131c0 3.779-.085 7.4099.045 11.0319.047 1.3357 1.297 2.1175 2.81 2.0583.868-.0326 1.727-.2725 2.749-.4442.482 1.4482.989 2.9645 1.543 4.623-3.172 1.1491-6.237 1.5963-9.237.0237-2.639-1.3801-3.554-3.8619-3.608-6.6754-.065-3.4473-.014-6.8975-.014-10.5225h-4.238v-4.8896h4.211z"></path><path d="m168.661 7.4007h5.399v32.2545h-5.399z"></path><path d="m193.119 16.8688h5.435v22.816h-5.435z"></path><path d="m195.843 13.7681c-1.934.0059-3.374-1.4245-3.356-3.3407.018-1.86279 1.401-3.23103 3.285-3.2488 2.002-.02073 3.411 1.31494 3.426 3.2488.015 1.931-1.395 3.3348-3.355 3.3407z"></path></g></svg>